<svg width="50" height="40" viewBox="0 0 50 40" fill="none" xmlns="http://www.w3.org/2000/svg">
<path d="M21.4758 4.74648C23.2729 3.94242 25.1538 3.31024 27.0892 2.85976C28.7954 2.46422 32.1651 2.06867 32.468 1.73642C32.5661 1.62567 31.3547 1.66918 30.8044 1.73642C30.0111 1.81948 29.2219 1.93419 28.4371 2.06867C26.8259 2.34614 25.2358 2.72005 23.6768 3.18805C14.8898 5.83026 7.20759 11.5972 2.82264 19.156C2.31931 20.0262 0.229208 23.3369 0.0159319 25.5282C-0.082175 26.5922 0.259066 27.4109 1.42355 27.5889C3.17668 27.8539 3.39422 26.2164 3.64589 25.0575C4.13689 22.9612 4.86314 20.9183 5.81277 18.9622C8.81143 12.6573 14.9069 7.74863 21.4758 4.74648Z" fill="#9B7747"/>
<path fill-rule="evenodd" clip-rule="evenodd" d="M49.9225 22.3401C49.7391 21.549 43.5925 10.8101 42.1294 8.53576C41.8095 8.02946 42.9825 8.58322 43.682 8.78099C43.905 8.85536 44.1448 8.87551 44.3785 8.8395C44.6122 8.80349 44.8321 8.71253 45.0171 8.57531C41.7583 7.01688 42.9356 4.16504 39.0923 5.60876C40.5597 3.68643 41.6943 3.36605 41.8521 0C36.3453 5.055 24.1502 2.12801 23.9028 9.6314C23.8687 10.7785 24.3294 13.5868 22.0644 16.0075C21.6805 16.403 24.3209 9.21213 21.1473 11.6328C19.1766 13.1438 15.4486 14.9672 15.6619 17.7993C15.7642 19.1639 18.4686 21.3592 16.8903 25.1208C16.7026 25.5519 16.4254 20.5681 14.0921 21.7745C10.4707 23.6414 10.0868 33.1542 13.3158 32.197C21.2198 29.8514 24.628 35.4404 32.5106 35.7885C35.1394 35.8415 37.7379 35.2609 40.0521 34.1035C30.4291 31.8726 27.7845 22.2373 30.6679 17.4908L31.4059 18.4005C34.187 22.1107 38.5464 19.8126 40.1118 19.2944C39.216 20.5681 37.8639 20.1725 37.2112 21.197C38.1027 21.9327 40.1118 22.9413 41.1483 23.503C43.4048 24.7213 42.236 25.5202 43.7588 26.4181C44.5565 26.8849 45.3243 26.7622 46.2925 26.7622C46.7575 26.7622 44.7143 24.5789 44.7399 24.4404C44.8721 23.7601 46.7959 26.7227 47.231 26.5526C48.9542 25.8683 50.349 24.2703 49.9225 22.3401ZM41.7412 13.1161C40.4104 12.8907 40.3208 12.7799 39.8004 11.6566C41.1696 12.0363 41.818 11.8187 41.7412 13.1161ZM47.8324 23.3764C47.7937 23.4056 47.7487 23.4266 47.7004 23.4381C47.6522 23.4496 47.6018 23.4512 47.5527 23.443C47.5037 23.4347 47.4572 23.4167 47.4164 23.3902C47.3756 23.3637 47.3414 23.3293 47.3163 23.2894C47.0967 22.7865 47.0608 22.2308 47.2139 21.7072C47.0689 23.3369 48.2632 22.8306 47.8324 23.3764Z" fill="#9B7747"/>
<path fill-rule="evenodd" clip-rule="evenodd" d="M21.8682 21.3948C24.4531 23.0639 27.0849 24.6738 29.7722 26.1966C28.5608 23.0323 28.6674 19.5832 30.1049 17.2139L30.5741 16.4228L31.9007 18.0525C32.2786 18.616 32.807 19.0795 33.4347 19.3983C34.0624 19.717 34.7681 19.8801 35.4837 19.8719C36.8871 19.8719 38.2947 19.334 39.2246 18.978C39.489 18.8791 39.7194 18.7882 39.9071 18.7288L41.6559 18.1513L40.645 19.5911C40.1885 20.2218 39.5052 20.6816 38.717 20.8885C38.5204 20.9512 38.3293 21.0279 38.1454 21.1179C38.926 21.636 40.0649 22.2373 40.8753 22.6684L41.464 22.9809C42.91 23.772 43.1702 24.4562 43.3749 25.014C43.4203 25.2017 43.508 25.3783 43.6323 25.5324C43.7565 25.6864 43.9145 25.8144 44.0958 25.9079C44.4691 26.1082 44.898 26.2018 45.3285 26.1768C45.1408 25.9316 44.9318 25.6785 44.7953 25.5084C44.1768 24.7529 44.0659 24.6184 44.1214 24.3218C44.145 24.1616 44.2299 24.0148 44.3607 23.908C44.4916 23.8012 44.6595 23.7417 44.8337 23.7403C45.3115 23.7403 45.657 24.1121 46.4504 25.0298C46.6764 25.2869 47.0219 25.6864 47.2437 25.8881C48.5618 25.2711 49.6666 24.0132 49.3125 22.4509C49.0651 21.6084 43.2171 11.3401 41.5962 8.81659C41.5119 8.70787 41.4624 8.57931 41.4534 8.44568C41.4443 8.31205 41.4761 8.17876 41.545 8.06111C41.6107 7.95695 41.7058 7.87136 41.8201 7.81352C41.9343 7.75568 42.0633 7.72778 42.1934 7.73281C42.5088 7.75641 42.8176 7.82999 43.1062 7.95036C42.7395 7.5834 42.4097 7.18622 42.1209 6.76374C41.6175 6.06363 41.3915 5.7828 40.8412 5.7828C40.3248 5.81602 39.8191 5.93527 39.3483 6.13483L37.3691 6.8824L38.6018 5.26464C38.9516 4.80186 39.2843 4.42609 39.5786 4.0978C40.3293 3.25925 40.8583 2.67385 41.0971 1.32901C38.7511 2.87953 35.7695 3.48866 32.8604 4.07802C28.4712 4.97985 24.6664 5.75511 24.5427 9.64722C24.5427 9.80148 24.5427 9.98739 24.5427 10.201C24.5725 11.5814 24.6365 14.1564 22.5421 16.3872C22.4813 16.4553 22.405 16.5101 22.3188 16.5477C22.2325 16.5853 22.1384 16.6048 22.0431 16.6048H21.7359L21.5483 16.3872C21.3265 16.1301 21.3691 15.964 21.5994 15.0384C22.026 13.2625 22.2009 12.1589 22.0815 11.7515C21.8897 11.8415 21.7106 11.9531 21.5483 12.0838C21.1516 12.3883 20.6952 12.6929 20.2174 13.0172C18.3577 14.2909 16.2249 15.7346 16.2846 17.6332C18.1273 18.9147 19.9828 20.1725 21.8682 21.3948ZM46.6082 21.6044L47.8494 21.7587C47.7983 22.3559 47.9433 22.435 48.0841 22.5141C48.1998 22.5651 48.3017 22.6395 48.3822 22.7319C48.4627 22.8244 48.5197 22.9325 48.549 23.0481C48.5685 23.167 48.5607 23.2883 48.5261 23.4042C48.4916 23.52 48.4311 23.6278 48.3485 23.7205C48.2627 23.8206 48.1528 23.9006 48.0276 23.9542C47.9024 24.0077 47.7654 24.0334 47.6276 24.0291C47.452 24.0311 47.2791 23.9878 47.1285 23.904C46.9778 23.8202 46.8553 23.6991 46.7745 23.5544C46.4813 22.9413 46.4182 22.2547 46.5954 21.6044H46.6082ZM39.9838 11.0989C40.2526 11.174 40.5 11.2254 40.7175 11.2729C41.5706 11.4509 42.4578 11.6368 42.3683 13.1478L42.3299 13.8044L41.6303 13.6857C40.0606 13.4246 39.8089 13.1517 39.2246 11.882L38.6999 10.7389L39.9838 11.0989Z" fill="#9B7747"/>
<path fill-rule="evenodd" clip-rule="evenodd" d="M29.5589 21.9327C29.5589 22.0118 29.5589 22.0949 29.5589 22.174C29.5632 22.0909 29.5632 22.0118 29.5589 21.9327Z" fill="#9B7747"/>
<path fill-rule="evenodd" clip-rule="evenodd" d="M48.967 21.5569C49.2443 21.5569 49.7263 23.1114 49.9268 22.348C49.9822 22.1186 46.4376 15.8651 46.4376 15.8651C47.8153 19.3815 48.131 21.6044 48.967 21.5569Z" fill="#9B7747"/>
<path fill-rule="evenodd" clip-rule="evenodd" d="M44.0915 8.18373C43.5925 8.03342 43.0422 7.70117 42.509 7.70117C42.1209 7.70117 42.0014 8.04924 42.1593 8.33007C42.4067 8.29843 43.183 8.6386 43.6863 8.78099C43.9093 8.85536 44.149 8.87551 44.3828 8.8395C44.6165 8.80349 44.8364 8.71253 45.0214 8.57531C44.8099 8.47646 44.6061 8.36412 44.4114 8.2391C44.3029 8.23183 44.1956 8.21325 44.0915 8.18373Z" fill="#9B7747"/>
<path fill-rule="evenodd" clip-rule="evenodd" d="M41.818 0.118662C41.6175 2.11614 41.0076 2.8202 40.1331 3.83278C39.8431 4.16899 39.5146 4.55267 39.1691 5.0194L38.5378 5.85399L39.5274 5.45845L39.7535 5.37539C39.553 5.43472 39.3269 5.50987 39.0966 5.59689C40.5597 3.68643 41.6943 3.36605 41.8521 0C41.5459 0.28503 41.218 0.549397 40.8711 0.79108C41.1992 0.582532 41.5153 0.358081 41.818 0.118662Z" fill="#9B7747"/>
<path fill-rule="evenodd" clip-rule="evenodd" d="M29.6016 22.3876C29.6785 24.0372 30.0684 25.6613 30.7533 27.1855C31.4972 28.892 32.6257 30.4315 34.0631 31.7009C35.5005 32.9704 37.2137 33.9405 39.0881 34.5465C39.4377 34.4072 39.7794 34.2514 40.1118 34.0797C37.2333 33.4446 34.6539 31.9624 32.7594 29.8548C30.8648 27.7472 29.757 25.1275 29.6016 22.3876Z" fill="#9B7747"/>
<path fill-rule="evenodd" clip-rule="evenodd" d="M12.4926 31.8766C11.9551 31.6432 11.5712 30.9471 11.3921 29.8989C10.9954 27.4821 11.8527 23.2261 14.1049 22.0672C14.2941 21.9597 14.5102 21.8998 14.732 21.8931C15.1969 21.8931 15.5467 22.2294 15.8111 22.6842C15.7414 22.5406 15.633 22.416 15.4962 22.3225C15.3595 22.2289 15.1992 22.1696 15.0306 22.1502C14.84 22.1574 14.6547 22.2106 14.4931 22.3045C12.1769 23.5386 11.3238 28.3325 11.9935 30.8086C12.0809 31.1921 12.2506 31.5553 12.4926 31.8766Z" fill="#9B7747"/>
<path fill-rule="evenodd" clip-rule="evenodd" d="M17.2998 25.449C17.1207 25.449 17.0524 25.3541 16.9714 25.0535C16.997 25.0535 17.0311 25.0535 17.0524 24.9902C18.1529 22.3717 17.1548 20.5364 16.4296 19.1956C16.1585 18.7636 15.9709 18.2911 15.8751 17.7993C15.7088 15.608 18.0633 14.014 19.953 12.7285C20.4136 12.416 20.853 12.1193 21.2326 11.8346C21.4923 11.5858 21.8294 11.4184 22.1966 11.356H22.2691C22.0427 11.4603 21.8331 11.5934 21.6464 11.7515C21.271 12.0482 20.8359 12.3527 20.3667 12.6731C18.4984 13.9823 16.1908 15.6001 16.3529 17.7637C16.4531 18.2456 16.6406 18.7084 16.9074 19.1323C17.6069 20.4652 18.669 22.4865 17.5387 25.2631C17.5241 25.313 17.4934 25.3576 17.4507 25.3908C17.408 25.4241 17.3553 25.4444 17.2998 25.449Z" fill="#9B7747"/>
<path fill-rule="evenodd" clip-rule="evenodd" d="M22.0772 16.0075C22.0772 16.0075 22.0772 16.0075 22.0473 16.0075C22.0606 16.0511 22.0839 16.0916 22.1156 16.1262L22.2094 16.2369H22.3672C22.4175 16.2366 22.467 16.2258 22.512 16.2053C22.5571 16.1847 22.5965 16.155 22.6274 16.1183C24.645 13.8953 24.581 11.3164 24.5512 9.92806C24.5512 9.7026 24.5512 9.50483 24.5512 9.34266C24.628 6.8824 25.9673 5.5692 27.9636 4.71088C25.6474 5.5692 24.0137 6.918 23.9284 9.61558C23.9028 10.7785 24.3294 13.6026 22.0772 16.0075Z" fill="#9B7747"/>
<path d="M46.9366 28.2534C46.5876 28.6957 46.2862 29.1687 46.0366 29.6655C44.8265 31.6874 43.1554 33.4401 41.1398 34.8016C39.1241 36.1631 36.8126 37.1006 34.3661 37.5486C32.0896 37.9216 29.75 37.786 27.5413 37.1531C22.8535 35.8359 20.58 33.0078 14.5912 34.4951C13.4779 34.768 12.2964 35.5314 11.1319 35.4364C9.96738 35.3415 9.37021 33.0632 9.174 32.1851C8.76343 30.2318 8.64288 28.2356 8.81569 26.252C8.98442 24.2656 9.43771 22.309 10.1636 20.4336C12.8125 13.6066 17.9866 8.50016 25.1057 4.95612C25.2556 4.88951 25.3984 4.81006 25.5323 4.71879L25.0844 4.86514C20.3923 6.38402 15.7429 9.03414 12.3518 12.6098C9.80841 15.2872 7.91709 18.4414 6.80664 21.8575C5.46726 26.0068 5.3137 30.6623 6.90048 34.7482C7.59149 36.5163 8.83702 38.4149 10.957 38.5177C13.0769 38.6205 14.9452 37.3311 17.0226 37.0977C19.2193 36.8564 21.2454 37.8374 23.2502 38.5414C26.9314 39.8309 30.9281 40.5191 34.797 39.5303C37.4109 38.839 39.838 37.6438 41.9196 36.023C44.0013 34.4021 45.6905 32.3921 46.8769 30.1243C47.2523 29.4203 47.7855 28.6213 47.8836 27.8381C47.7031 27.8415 47.5254 27.8802 47.3622 27.9518C47.199 28.0234 47.0539 28.1262 46.9366 28.2534Z" fill="#9B7747"/>
<path d="M31.2481 39.7122C28.7319 39.6501 26.2465 39.183 23.9028 38.3318C21.6549 37.5803 19.3387 36.4411 16.8775 36.8722C14.9452 37.2124 13.1495 38.4821 11.1063 38.229C9.1868 37.9877 8.12042 36.1761 7.51045 34.6493C6.03458 30.8521 6.00045 26.343 7.42087 21.9406C8.51668 18.5673 10.3783 15.4505 12.8807 12.7997C15.5042 10.0973 18.6868 7.91147 22.2393 6.37215C16.4382 9.92806 12.3859 14.6113 10.1807 20.3308C9.44811 22.2311 8.98916 24.2127 8.81569 26.2243C8.64007 28.237 8.76206 30.2624 9.17826 32.2444C9.42566 33.3045 9.83515 35.1714 11.0338 35.6382C12.2324 36.1049 13.4779 35.472 14.5272 35.0765C15.648 34.6159 16.8588 34.3736 18.0847 34.3645C20.3838 34.3645 22.1198 35.1556 23.954 35.9665C30.3523 38.842 37.8212 38.7352 43.1105 33.9017C44.4728 32.6878 45.6548 31.3111 46.6252 29.8079C46.7404 29.618 46.8385 29.4401 46.9324 29.266C47.0702 28.9736 47.2495 28.6996 47.4656 28.4512C47.5571 28.3581 47.6653 28.2805 47.7855 28.2218C47.6161 28.6882 47.399 29.1385 47.1371 29.5666C47.0561 29.713 46.975 29.8554 46.9025 29.9938C45.7351 32.2255 44.0727 34.2036 42.0241 35.7985C39.9756 37.3935 37.5869 38.5694 35.0145 39.2494C33.7871 39.5599 32.5203 39.7155 31.2481 39.7122Z" fill="#9B7747"/>
</svg>
