<svg width="60" height="60" viewBox="0 0 60 60" fill="none" xmlns="http://www.w3.org/2000/svg">
<circle cx="30" cy="30" r="29.5" stroke="#9B7747"/>
<path d="M30 23.7292L31.164 22.6152C32.2446 21.581 33.7101 21.0001 35.2382 21.0001C36.7663 21.0001 38.2319 21.581 39.3124 22.6152C40.393 23.6493 41 25.0519 41 26.5145C41 27.977 40.393 29.3796 39.3124 30.4137L30.582 38.7693C30.2605 39.0769 29.7394 39.0769 29.4179 38.7693L26.5078 35.9841C26.4994 35.976 26.491 35.9679 26.4826 35.9598L20.6876 30.4136C19.607 29.3795 19 27.9769 19 26.5144C19 25.0519 19.607 23.6493 20.6876 22.6151C21.7681 21.581 23.2337 21 24.7618 21C26.2899 21 27.7554 21.581 28.836 22.6151L30 23.7292ZM30 23.7292L34.0741 27.6285" stroke="#9B7747" stroke-linecap="round" stroke-linejoin="round"/>
</svg>
