<svg width="60" height="60" viewBox="0 0 60 60" fill="none" xmlns="http://www.w3.org/2000/svg">
<circle cx="30" cy="30" r="29.5" stroke="#9B7747"/>
<path d="M29.6593 36.7425C28.9138 33.0617 26.7215 29.9638 23.703 28.3257C22.2164 27.5189 20.6091 27.1095 19 27.0973C19.0941 29.7056 19.9177 32.2445 21.3928 34.329C23.4664 37.2591 26.6033 38.9747 29.9264 38.9997C29.8992 38.2459 29.8108 37.4904 29.6593 36.7425ZM29.6593 36.7425C29.0473 33.7209 27.4602 31.092 25.2415 29.3411C25.2789 29.0801 25.3239 28.8195 25.3765 28.5598C26.0073 25.4456 27.6737 22.7486 30 21C32.3262 22.7486 33.9926 25.4456 34.6234 28.5598C34.676 28.8195 34.721 29.08 34.7584 29.3411C32.5397 31.092 30.9527 33.7208 30.3407 36.7425M29.6593 36.7425C29.8107 37.4902 29.8991 38.2455 29.9263 38.999C29.9723 38.9997 30.0183 39 30.0644 39C30.9959 39 31.9134 38.8671 32.7974 38.6117C32.8024 38.604 32.8074 38.5962 32.8124 38.5884C31.9272 38.8521 31.0078 38.9927 30.0736 38.9997M30.3407 36.7425C31.0862 33.0617 33.2785 29.9638 36.297 28.3257C37.7836 27.5189 39.3909 27.1095 41 27.0973C40.9059 29.7056 40.0823 32.2445 38.6072 34.329C36.5336 37.2591 33.3967 38.9747 30.0736 38.9997M30.3407 36.7425C30.1892 37.4904 30.1008 38.2459 30.0736 38.9997" stroke="#9B7747" stroke-linecap="round" stroke-linejoin="round"/>
</svg>
