<svg width="60" height="60" viewBox="0 0 60 60" fill="none" xmlns="http://www.w3.org/2000/svg">
<circle cx="30" cy="30" r="29.5" stroke="#9B7747"/>
<path d="M38.8312 29.1707C38.6612 29.9926 38.1476 30.6902 37.4331 31.0698C36.6787 31.4706 35.7877 31.4706 35.0332 31.0698C34.3187 30.6902 33.8052 29.9926 33.6351 29.1707L33.6011 29.0062C33.4282 28.1704 33.6121 27.2969 34.1046 26.6156L34.1588 26.5406C34.6513 25.8593 35.4188 25.4592 36.2332 25.4592C37.0476 25.4592 37.8151 25.8593 38.3075 26.5406L38.3618 26.6156C38.8542 27.2969 39.0382 28.1704 38.8652 29.0062L38.8312 29.1707Z" stroke="#9B7747" stroke-linecap="square" stroke-linejoin="round"/>
<path d="M40.2177 37.4592H32.9243C32.8662 36.4858 32.5352 35.5725 31.997 34.8197C32.3509 34.2707 32.8645 33.8358 33.4845 33.5955L33.7814 33.4804C35.3637 32.867 37.1026 32.867 38.685 33.4804L38.9818 33.5955C40.1946 34.0656 41 35.2796 41 36.6375C41 37.0913 40.6498 37.4592 40.2177 37.4592Z" stroke="#9B7747" stroke-linecap="square" stroke-linejoin="round"/>
<path d="M31.7604 39H20.1734C19.5253 39 19 38.4482 19 37.7674C19 35.7274 20.2014 33.9 22.0176 33.1774L22.3225 33.0561C24.6707 32.1219 27.2631 32.1219 29.6113 33.0561L29.9162 33.1774C31.7325 33.9 32.9338 35.7274 32.9338 37.7674C32.9338 38.4482 32.4085 39 31.7604 39Z" stroke="#9B7747" stroke-linecap="square" stroke-linejoin="round"/>
<path d="M24.1853 29.4007C25.3023 30.0098 26.6315 30.0098 27.7485 29.4007C28.7758 28.8406 29.5102 27.8264 29.75 26.637L29.8251 26.2647C30.0712 25.0438 29.8076 23.7706 29.1009 22.7673L28.9798 22.5954C28.2731 21.5919 27.1552 21 25.9669 21C24.7786 21 23.6607 21.5919 22.954 22.5954L22.8329 22.7673C22.1262 23.7706 21.8626 25.0438 22.1088 26.2647L22.1838 26.637C22.4236 27.8265 23.158 28.8406 24.1853 29.4007Z" stroke="#9B7747" stroke-linecap="square" stroke-linejoin="round"/>
</svg>
